<?xml version="1.0" encoding="UTF-8"?>
<!DOCTYPE svg PUBLIC "-//W3C//DTD SVG 1.1//EN" "http://www.w3.org/Graphics/SVG/1.1/DTD/svg11.dtd">
<!-- Creator: CorelDRAW X7 -->
<svg xmlns="http://www.w3.org/2000/svg" xml:space="preserve" width="8.5in" height="11in" version="1.1" style="shape-rendering:geometricPrecision; text-rendering:geometricPrecision; image-rendering:optimizeQuality; fill-rule:evenodd; clip-rule:evenodd"
viewBox="0 0 8500 11000"
 xmlns:xlink="http://www.w3.org/1999/xlink">
 <defs>
  <style type="text/css">
   <![CDATA[
    .fil2 {fill:#195B85}
    .fil12 {fill:#195D82}
    .fil14 {fill:#1A4D66}
    .fil8 {fill:#1A5D86}
    .fil6 {fill:#1D6185}
    .fil10 {fill:#265677}
    .fil13 {fill:#31526A}
    .fil19 {fill:#4286AA}
    .fil17 {fill:#458AAC}
    .fil18 {fill:#468AA8}
    .fil21 {fill:#498DB2}
    .fil7 {fill:#4D4238}
    .fil27 {fill:#513B31}
    .fil9 {fill:#534135}
    .fil5 {fill:#534239}
    .fil16 {fill:#5697B7}
    .fil23 {fill:#674738}
    .fil25 {fill:#79BEE2}
    .fil26 {fill:#7DC2E3}
    .fil24 {fill:#81C6E6}
    .fil22 {fill:#85BCD6}
    .fil3 {fill:#86CBE8}
    .fil0 {fill:#87CCE9}
    .fil1 {fill:#89CBE9}
    .fil15 {fill:#8D788A}
    .fil20 {fill:#D28082}
    .fil11 {fill:#EEC3B4}
    .fil4 {fill:#F9BDB4}
   ]]>
  </style>
 </defs>
 <g id="Layer_x0020_1">
  <metadata id="CorelCorpID_0Corel-Layer"/>
  <g id="_1662935322560">
   <path class="fil0" d="M2323 6487c14,-55 -33,-46 125,-44l402 -4c66,4 56,-9 66,34 14,62 -161,36 -279,38 -49,0 -107,0 -156,0 -75,0 -124,16 -158,-24zm927 -4c14,-55 9,-45 77,-45 91,0 260,-13 299,16l-1 42c-45,22 -198,10 -275,12 -3,0 -46,1 -48,0 -72,-11 -32,-3 -52,-25zm-928 -259c3,-74 13,-46 219,-49 62,-1 217,-9 266,8l-5 60 -480 -19zm-1 -270c10,-66 4,-45 177,-46 63,0 157,-16 214,13l-5 48c-21,6 -348,30 -386,-15zm923 -806c12,-74 49,-46 245,-46l757 -6c22,1 9,-2 32,5 26,8 14,4 28,16 4,69 -30,50 -97,49l-699 4c-66,0 -225,26 -266,-22zm1568 -348c-94,-2 -73,-20 -73,-68 1,-56 8,-53 26,-73 82,10 69,77 47,141zm-2477 2062l726 5c51,-20 1123,-7 1292,-17l69 11c40,-23 404,-5 491,-14l134 7c23,-9 2,-5 37,-7l318 2 27 9c36,-20 1,-14 56,-14 25,0 51,10 72,16l494 -9 169 -4 -37 -24c6,-4 22,15 14,-65 -64,-32 -69,-51 -200,-83 29,-74 -11,0 28,-62l197 40c3,-3 8,2 14,2l8 -69c-152,-45 -64,-33 -275,-75 0,-33 12,-28 -11,-14 23,-105 48,-89 33,-135 -51,-6 -17,-2 -76,12 -98,23 53,3 -27,7l3 -13c1,2 3,6 3,7l-4 62c-59,-13 -49,-7 -97,16l-82 30c29,31 33,12 20,68l-104 -133 -83 24 -8 71c-32,3 -106,7 -146,-18l-71 -86c50,-60 2,-15 42,-27l178 -29c8,-1 34,-13 71,-20l-43 -46 90 -12c66,-12 76,-20 146,-14 16,-22 6,-6 24,-46 -71,-3 -345,17 -385,-17 5,-71 10,-55 90,-53l358 -2c37,7 59,5 90,9 0,0 46,22 88,-12 -19,-25 34,-23 -70,-42l-482 4c-23,0 -59,3 -80,2 -19,0 -26,0 -44,-6 -37,-11 -6,7 -27,-16 10,-65 -20,-50 62,-48 -44,-42 -67,-15 -114,-33l-42 61c-96,-24 -34,-62 -141,-60 11,-47 15,-76 11,-110 32,-25 -33,-42 50,-11 -1,-179 -25,-1096 4,-1191l-49 20c-61,48 -23,140 -90,131l10 -243c-64,23 12,-9 -66,-4 -97,8 -13,-19 -71,69 11,59 13,70 -4,131l-58 -6c-13,-31 -15,-77 1,-109 -14,-31 -17,-30 -19,-63 -2,-32 32,5 -6,-39l-59 15c-1,3 1,8 1,10l19 41c-14,43 -13,-63 -137,-43 -39,6 -15,0 -42,12 -3,25 4,67 3,71 24,-28 25,-22 69,-16 21,46 18,69 9,122l-52 7c14,-34 1,4 0,5l-66 42c96,14 -7,-44 40,9 -27,-27 0,-38 -60,-33 -35,3 -58,24 -66,33 115,145 171,81 192,80 -1,-59 -32,11 27,-29 35,-24 14,13 11,-14 20,59 -22,18 41,71 67,6 54,-9 50,61 -59,25 -1386,12 -1579,17 -37,13 -20,-1 -58,49 -37,48 -31,97 -5,145 61,8 15,10 71,-4 78,20 170,6 255,6 112,1 211,-19 242,26 -12,57 -17,46 -87,44 -37,-1 -55,-3 -90,1 -8,49 -10,14 13,53 65,16 89,-9 121,33 -9,60 -6,48 -84,47 -40,0 -76,-2 -115,-1 -1,18 -11,31 -3,49 64,-5 27,-5 37,15l84 5c15,22 31,-8 8,93l27 -14c45,-2 -34,-17 8,3 1,0 3,3 4,4 83,51 24,1 105,33 64,17 179,-15 220,27 -8,75 -41,51 -125,50 -48,0 -97,-2 -136,4 -32,55 -8,13 -13,59 0,3 -4,25 -9,35l-22 33c-2,3 -5,8 -9,11l-33 -3c-3,27 4,24 -11,40 -1,1 -12,8 -15,11 -2,0 -66,-16 -67,-16 -133,2 1,10 -90,30l37 16c65,69 99,20 100,64 1,-1 -1,-5 -1,-4 -1,1 -2,-3 -3,-3 0,0 -3,-3 -4,-3 0,0 -177,8 -198,27 -3,2 -5,5 -7,7l-10 30 167 4 50 95c79,0 34,28 73,-12 126,28 143,50 162,-34 82,18 72,5 102,-19 -19,12 -27,1 16,34 44,34 43,29 59,71 -22,35 3,22 -27,57l-675 7c-38,33 -6,23 -59,15 3,3 10,2 11,8 4,14 17,9 58,29 113,32 137,-21 185,33 -15,71 -39,45 -113,46 -42,1 -82,5 -138,-7l-2 -25c-36,-55 -92,-128 -126,-27 15,-8 19,25 14,-19 -8,-59 17,-1 -26,-54 -27,92 -40,14 -27,120l-20 -38c-42,-20 -5,-35 -29,17 -39,58 -212,36 -344,36 -78,0 -317,15 -370,-10l3 -47c60,-27 560,-12 669,-14 -7,-25 38,-36 -67,-52 -33,-6 -63,8 -90,25 1,-5 16,-49 18,-52 1,-1 4,-4 4,-4 1,-1 5,-3 5,-4l26 -6c30,0 53,29 106,45 2,-2 7,-10 7,-7l77 -58 -187 -42c9,15 17,-4 -36,39 30,-41 12,-58 12,-58 -39,7 -31,6 -70,-12 -98,-36 -425,24 -477,-26 6,-83 82,-51 296,-53 82,0 262,8 329,-4 0,0 24,-23 46,-18l-42 -49c-36,-30 -66,-29 -103,-62 -47,-41 -13,-18 -25,-11 3,-1 9,-3 9,1l125 28c-18,-36 29,-46 -100,-65 -65,-9 13,11 -56,-8 -82,-30 -222,22 -286,-25 6,-76 -30,-55 185,-55 73,0 149,-3 218,0l23 -89c21,5 27,9 44,14 3,1 14,6 17,7 2,0 6,1 8,2 35,7 -22,-36 72,30 4,3 8,7 13,10 77,-73 99,-6 103,-146 -58,2 -23,-14 -60,15 18,-15 30,6 -14,-13 -60,-27 -23,7 -93,-45 -1,-1 -8,-2 -8,-6 -1,-5 -111,-3 -151,24l-53 25c54,39 30,-11 33,54l-19 54 -305 0c-13,-21 -9,4 -15,-40 -4,-1 -9,0 -12,0l-120 28c-45,1 -131,-26 -179,-36 -8,43 -6,18 -4,52 0,6 1,9 1,15l7 22c1,5 22,42 23,43 -23,-41 -14,2 -39,-34 -48,-67 41,-127 33,-192 -62,-43 -13,-16 -97,-35 51,-35 40,-26 54,-92l69 -1c36,-46 52,-89 20,-143l-23 38c-1,-27 -1,8 -19,-44 -9,-26 -19,26 -3,-46 -29,25 37,-2 53,18l29 -63 -120 -19c-20,68 -24,81 -46,130l14 -429c-5,-79 -4,-122 15,-210 -2,-4 -7,-8 -9,-11l-14 -19c-1,-3 -4,-7 -5,-9 -14,-35 18,-58 37,-73 -51,38 3,56 3,57l19 -21c3,-4 6,-7 8,-10 63,-73 -26,30 20,-24 5,-5 9,-9 22,-24l17 -21c-88,-22 -38,0 -120,3 -6,-27 -4,-46 5,-85 28,31 1,35 10,81 4,-1 9,-2 12,-3 3,0 8,-2 12,-2l87 0c-6,-71 43,-28 -28,-60 9,18 -25,7 25,18 -11,53 -47,161 -41,186 -61,0 -35,-4 -76,27 33,44 62,92 50,152 -23,126 -16,75 1,125l9 26c1,3 0,27 3,45 5,-2 10,-6 14,-9l52 -35c40,-28 32,-58 33,-80l4 -45c0,-2 0,-7 -1,-9 -11,-62 4,12 -7,-23l-12 -26c37,55 -1,25 67,50 2,0 55,12 68,16l31 -21c54,-27 62,38 110,-44 -40,5 -59,12 -95,-1l-166 -17 7 -112 158 -5 85 -8c-59,-57 -27,-43 -55,-68 45,9 53,0 97,7 42,7 92,21 134,30 13,-20 15,-29 29,-52l29 -46c3,-8 6,-9 9,-13 -75,-17 -108,-38 -185,-55l15 -67c70,-20 22,-43 85,-64 61,-21 -40,-9 43,-6 -7,-43 -21,-53 -22,-57 -1,-2 -27,5 3,-3 29,-7 33,20 102,-7 90,-34 41,6 118,13 26,3 30,-7 90,6 -1,-28 -18,-51 -4,-75l8 -7c24,-19 4,-16 16,-6 -4,3 -11,-33 -13,33 -1,68 -39,-9 13,31 -47,-1 -19,4 -53,14l-85 40c75,-15 33,-16 85,1 117,40 2546,-28 2666,7l-3 125 -477 5c-59,47 -92,-19 -30,35l70 21 -9 56 28 1c-1,3 -4,8 -6,10 -79,121 -34,70 -30,84 1,4 18,38 20,42l-27 -7 245 -6 696 4c21,94 10,452 9,572 -2,112 -18,483 12,556 33,-16 65,-26 93,-48 33,-26 38,-53 71,-15 15,-66 25,-100 56,-149 -9,-131 -22,-910 3,-985 -18,-44 -12,-72 -12,-124 1,-405 -117,-356 -527,-360 -1069,-9 -2202,11 -3285,16 -168,1 -342,-25 -430,67 -97,101 -67,304 -66,447l10 1877c-2,172 25,321 235,322z"/>
   <path class="fil0" d="M2513 5573l3 -66 250 0 1 65 -254 1zm-196 -144l6 -50c48,-11 370,-13 408,2l-4 59c-79,3 -350,16 -410,-11zm0 -128l2 -49 99 -12c90,2 289,-10 352,9 -12,87 22,57 -206,59 -67,0 -192,7 -247,-7zm-2 -143c14,-84 46,-51 258,-52 63,0 224,-10 274,5l-2 60 -471 5c-89,-7 -58,-18 -59,-18zm3 -131c3,-76 -30,-56 182,-55 59,0 162,-9 208,10l-5 55c-63,6 -351,18 -385,-10zm846 -356c64,22 13,-14 42,64 1,3 4,6 5,9 13,35 19,13 4,50l-62 2c28,-52 23,-74 11,-125zm342 8c19,31 14,6 10,52 51,-44 13,-27 42,-27l1 87c-26,-17 -51,-22 -63,-47 -10,-24 1,-46 10,-65zm-232 -2c83,-16 100,67 16,74l41 37c-33,19 -22,15 -63,9 -10,-62 -4,-58 15,-72l-2 -39c-1,-2 -5,-6 -7,-9zm116 -2l57 3c11,45 11,73 -2,120l-61 -1 36 -33c-9,-17 6,-1 -22,-31 8,-4 22,-17 29,-22 -40,-24 -43,1 -37,-36zm580 -4c46,7 28,-17 44,43 8,28 11,45 0,74 -53,19 -18,11 -60,0 -11,-50 -3,-71 16,-117zm-240 2c15,19 4,28 29,54 33,35 36,-19 33,73l-72 -6c-4,-48 -12,-71 10,-121zm-89 34c68,51 49,54 18,90l-46 -5c16,-23 5,-7 22,-22 85,-77 -47,57 25,-21 -21,-7 -44,9 -44,-39 -1,-70 17,-34 42,-41l0 19c0,1 -1,7 -2,8l-15 11zm196 -37l72 0 -20 88c-2,4 -5,7 -7,11l-12 18c-15,-43 -23,-30 10,-73 -2,-2 -4,-7 -6,-5 -1,2 -5,-5 -6,-6 -2,-1 -6,-4 -7,-6l-16 -17c-2,-2 -6,-6 -8,-10zm354 0l51 1c10,36 18,84 -8,121l-53 -1c-9,-44 -13,-85 10,-121zm-124 4l65 -3c8,49 15,91 -10,120 -29,-51 12,-17 -40,-62 -68,-60 23,57 -19,-19l4 -36zm280 -11c34,49 39,101 -8,139l-50 -10c-1,-82 -28,-123 58,-129zm70 1c57,5 63,-5 63,65 1,67 -6,67 -63,61 -25,-42 -22,-77 0,-126zm114 2l61 2 -2 93c-6,19 -12,25 -16,30l-45 1c-19,-43 -22,-81 2,-126zm-1508 -357c-52,-17 -10,-16 -85,-1l85 -40c34,-10 6,-15 53,-14 -52,-40 -14,37 -13,-31 2,-66 9,-30 13,-33 -12,-10 8,-13 -16,6l-8 7c-14,24 3,47 4,75 -60,-13 -64,-3 -90,-6 -77,-7 -28,-47 -118,-13 -69,27 -73,0 -102,7 -30,8 -4,1 -3,3 1,4 15,14 22,57 -83,-3 18,-15 -43,6 -63,21 -15,44 -85,64l-15 67c77,17 110,38 185,55 -3,4 -6,5 -9,13l-29 46c-14,23 -16,32 -29,52 -42,-9 -92,-23 -134,-30 -44,-7 -52,2 -97,-7 28,25 -4,11 55,68l-85 8 56 9 -3 102 -52 23c36,13 55,6 95,1 -48,82 -56,17 -110,44l-31 21c-13,-4 -66,-16 -68,-16 -68,-25 -30,5 -67,-50l12 26c11,35 -4,-39 7,23 1,2 1,7 1,9l-4 45c-1,22 7,52 -33,80l-52 35c-4,3 -9,7 -14,9 -3,-18 -2,-42 -3,-45l-9 -26c-17,-50 -24,1 -1,-125 12,-60 -17,-108 -50,-152 41,-31 15,-27 76,-27 -6,-25 30,-133 41,-186 -50,-11 -16,0 -25,-18 71,32 22,-11 28,60l-87 0c-4,0 -9,2 -12,2 -3,1 -8,2 -12,3 -9,-46 18,-50 -10,-81 -9,39 -11,58 -5,85 82,-3 32,-25 120,-3l-17 21c-13,15 -17,19 -22,24 -46,54 43,-49 -20,24 -2,3 -5,6 -8,10l-19 21c0,-1 -54,-19 -3,-57 -19,15 -51,38 -37,73 1,2 4,6 5,9l14 19c2,3 7,7 9,11 -19,88 -20,131 -15,210l-14 429c22,-49 26,-62 46,-130l120 19 -29 63c-16,-20 -82,7 -53,-18 -16,72 -6,20 3,46 18,52 18,17 19,44l23 -38c32,54 16,97 -20,143l-69 1c-14,66 -3,57 -54,92 84,19 35,-8 97,35 8,65 -81,125 -33,192 25,36 16,-7 39,34 -1,-1 -22,-38 -23,-43l-7 -22c0,-6 -1,-9 -1,-15 -2,-34 -4,-9 4,-52 48,10 134,37 179,36l120 -28c3,0 8,-1 12,0 7,-47 105,-30 147,-30 67,1 129,-9 192,16 -3,-65 21,-15 -33,-54l53 -25c40,-27 150,-29 151,-24 0,4 7,5 8,6 70,52 33,18 93,45 44,19 32,-2 14,13 37,-29 2,-13 60,-15l9 -40c17,18 7,3 38,14l4 -61c14,-4 16,-6 37,-9l255 -4c-10,-20 27,-20 -37,-15 -8,-18 2,-31 3,-49 -67,-1 -209,13 -262,-13 5,-82 57,-55 150,-55 61,0 144,9 190,-11 -23,-39 -21,-4 -13,-53 -74,-3 -274,8 -326,-10l6 -67c-56,14 -10,12 -71,4 -26,-48 -32,-97 5,-145 38,-50 21,-36 58,-49l36 -68 147 -2c338,-3 1117,12 1346,-8 -63,-53 -21,-12 -41,-71 3,27 24,-10 -11,14 -59,40 -28,-30 -27,29 -21,1 -77,65 -192,-80 8,-9 31,-30 66,-33 60,-5 33,6 60,33 -47,-53 56,5 -40,-9l66 -42c1,-1 14,-39 0,-5 -26,-32 -20,-9 -27,-46 -1,-8 1,-60 1,-67 1,-4 -6,-46 -3,-71 27,-12 3,-6 42,-12 124,-20 123,86 137,43l-19 -41c0,-2 -2,-7 -1,-10l59 -15c38,44 4,7 6,39 2,33 5,32 19,63 36,-23 11,-11 61,-16 58,-88 -26,-61 71,-69 78,-5 2,27 66,4l-10 243c67,9 29,-83 90,-131l49 -20 30 -2 27 7c-2,-4 -19,-38 -20,-42 -4,-14 -49,37 30,-84 2,-2 5,-7 6,-10l-28 -1c-143,19 -358,6 -511,7 -208,2 -1454,20 -1488,-7 5,-84 6,-53 213,-56 256,-3 1531,7 1673,-7l42 -10c2,-4 7,-3 10,-4 -62,-54 -29,12 30,-35 -190,-12 -436,-3 -620,0 -220,4 -1703,22 -1794,1l8 -130c46,4 75,3 121,3l99 -11z"/>
   <path class="fil1" d="M6187 5814l-8 68 -4 61c-26,32 -25,31 -76,31 -25,0 -55,-3 -83,-4 -64,0 -105,7 -177,-4 -64,12 -245,14 -329,-3l28 -118 -27 133c-63,-8 -112,-4 -168,-4 -74,0 -113,15 -149,-20l-3 -73c-83,-31 -18,-14 -50,11 4,34 0,63 -11,110 107,-2 45,36 141,60l42 -61c47,18 70,-9 114,33 111,0 503,-15 578,9l-7 55c104,19 51,17 70,42 -42,34 -88,12 -88,12 -31,-4 -53,-2 -90,-9 51,9 21,-4 41,23 -10,75 -26,43 -104,49 -18,40 -8,24 -24,46 -70,-6 -80,2 -146,14l-90 12 43 46c-37,7 -63,19 -71,20l-178 29c-40,12 8,-33 -42,27l71 86c40,25 114,21 146,18l8 -71 -101 17c40,-45 65,-41 117,-53 90,-19 54,-7 109,-63 45,-45 177,-73 264,-50 -32,46 -74,55 -123,74l-106 32c-2,1 -6,3 -9,4 -3,1 -7,3 -10,4l-18 9c21,57 34,27 44,67l82 -30c48,-23 38,-29 97,-16l4 -62c0,-1 -2,-5 -3,-7l-3 13c80,-4 -71,16 27,-7 59,-14 25,-18 76,-12 15,46 -10,30 -33,135 23,-14 11,-19 11,14 211,42 123,30 275,75l-8 69c-6,0 -11,-5 -14,-2l-197 -40c-39,62 1,-12 -28,62 131,32 136,51 200,83 8,80 -8,61 -14,65l37 24c84,-45 141,-31 181,-174l3 -85 8 -12c-21,-41 8,-649 -16,-773 25,-52 1,-141 11,-201 -31,49 -41,83 -56,149 -33,-38 -38,-11 -71,15 -28,22 -60,32 -93,48z"/>
   <path class="fil2" d="M3023 4309l-99 11c-46,0 -75,1 -121,-3l-8 130c91,21 1574,3 1794,-1 184,-3 430,-12 620,0l477 -5 3 -125c-120,-35 -2549,33 -2666,-7z"/>
   <path class="fil2" d="M5470 4682c-34,151 57,-57 -3,117 62,14 20,0 40,34 100,-8 157,44 226,77 74,35 196,28 225,60 30,33 29,153 30,211 0,22 -3,97 1,117 4,17 9,20 20,40l26 54 -1 11c7,11 31,21 5,85 -24,60 -18,-17 -39,71 -13,52 -26,122 -39,178 87,-9 41,-26 100,-76 -20,15 -7,-12 -6,26 1,128 8,100 62,113 -27,50 -43,-29 -184,-62 -44,111 -14,10 12,80 36,-19 2,-21 -12,27l-7 11c-4,-2 5,3 6,7 1,3 7,4 9,4 35,12 -15,3 27,7l211 8 8 -68c-30,-73 -14,-444 -12,-556 1,-120 12,-478 -9,-572l-696 -4z"/>
   <path class="fil3" d="M3245 5575c-31,-11 -21,4 -38,-14l-9 40c-4,140 -26,73 -103,146 -5,-3 -9,-7 -13,-10 -94,-66 -37,-23 -72,-30 -2,-1 -6,-2 -8,-2 -3,-1 -14,-6 -17,-7 -17,-5 -23,-9 -44,-14l-23 89 40 13 -21 50c-56,14 -80,-7 -136,17 69,19 -9,-1 56,8 129,19 82,29 100,65l-125 -28c0,-4 -6,-2 -9,-1 12,-7 -22,-30 25,11 37,33 67,32 103,62l42 49c-22,-5 -46,18 -46,18 116,6 97,-3 111,38 -28,57 21,25 -54,35l-205 10c39,18 31,19 70,12 0,0 18,17 -12,58 53,-43 45,-24 36,-39l187 42 -77 58c0,-3 -5,5 -7,7 -53,-16 -76,-45 -106,-45l-26 6c0,1 -4,3 -5,4 0,0 -3,3 -4,4 -2,3 -17,47 -18,52 27,-17 57,-31 90,-25 105,16 60,27 67,52 48,15 11,-9 42,35 24,-52 -13,-37 29,-17l20 38c-13,-106 0,-28 27,-120 43,53 18,-5 26,54 5,44 1,11 -14,19 34,-101 90,-28 126,27l6 -36 62 -11c-41,-20 -54,-15 -58,-29 -1,-6 -8,-5 -11,-8 53,8 21,18 59,-15l-53 -3 -5 -67c137,-5 654,-20 760,6 -16,-42 -15,-37 -59,-71 -43,-33 -35,-22 -16,-34 -30,24 -20,37 -102,19 -19,84 -36,62 -162,34 -39,40 6,12 -73,12l-50 -95 -11 63c-78,-3 -227,12 -286,-10l-1 -49c44,-17 81,-11 131,-8l10 -30c2,-2 4,-5 7,-7 21,-19 198,-27 198,-27 1,0 4,3 4,3 1,0 2,4 3,3 0,-1 2,3 1,4 -1,-44 -35,5 -100,-64l-10 51 -242 -17c-6,-67 9,-53 82,-52 48,0 88,0 133,2 91,-20 -43,-28 90,-30 1,0 65,16 67,16 3,-3 14,-10 15,-11 15,-16 8,-13 11,-40 -86,-7 -358,16 -402,-18 5,-70 10,-55 92,-53 103,1 275,-12 353,9l-10 65c4,-3 7,-8 9,-11l22 -33c5,-10 9,-32 9,-35 5,-46 -19,-4 13,-59 -87,-6 -166,-1 -254,-1 -62,-1 -167,11 -217,-10l-19 -13c18,-68 50,-46 125,-46 91,1 363,11 406,-11 -81,-32 -22,18 -105,-33 -1,-1 -3,-4 -4,-4 -42,-20 37,-5 -8,-3l-27 14c23,-101 7,-71 -8,-93l-12 64 -368 5z"/>
   <path class="fil2" d="M5225 4688l-30 2c-29,95 -5,1012 -4,1191l3 73c41,-68 251,-46 314,-46l13 -85c-39,-47 -129,-139 -135,-224 -3,-32 -2,-70 -5,-107 -36,-15 -54,-26 -58,-60 -7,-53 30,-57 54,-65 0,-48 14,-95 3,-133 -14,-46 -29,-38 -59,-74 14,-60 32,-52 48,-129 11,-48 18,-86 31,-134 43,-12 11,8 40,-20 44,-61 4,0 67,-44 -20,-34 22,-20 -40,-34 60,-174 -31,34 3,-117l-245 6z"/>
   <path class="fil4" d="M5683 5410c25,21 21,-1 26,54 6,69 -15,73 -15,74 -49,-7 -46,9 -47,-63 0,-46 -7,-45 36,-65zm-104 -61c-26,55 8,51 -49,31 8,-51 -4,-30 49,-31zm251 1c-30,68 0,34 -43,34 -13,-56 1,-35 43,-34zm-327 -79c104,-29 67,16 73,25 -4,0 -34,0 -38,-1 -40,-12 -21,-4 -35,-24zm317 -11c60,0 30,14 36,19 -33,17 36,15 -41,13 -51,-1 -32,-14 -35,-16 21,-13 -28,-17 40,-16zm-247 -29l-138 -8 -12 128 -46 16c-24,8 -61,12 -54,65 4,34 22,45 58,60 14,-58 11,-33 28,-51 41,41 13,55 31,115 76,8 154,-5 228,-6 83,0 167,14 255,18 8,-55 -8,-89 20,-130 43,25 19,-25 31,45 52,-10 50,-26 60,-80l1 -11 -74 -32 -36 -9 8 -163c-48,4 -42,18 -95,17 -56,-1 -36,-16 -93,-4 -69,15 -79,35 -172,30z"/>
   <path class="fil5" d="M5381 5492c3,37 2,75 5,107 6,85 96,177 135,224 50,13 27,9 36,24 112,44 188,39 262,-12 103,-71 136,-203 155,-352 -12,-70 12,-20 -31,-45 -28,41 -12,75 -20,130 -88,-4 -172,-18 -255,-18 -74,1 -152,14 -228,6 -18,-60 10,-74 -31,-115 -17,18 -14,-7 -28,51z"/>
   <path class="fil6" d="M5240 4558l9 -56 -70 -21c-3,1 -8,0 -10,4l-42 10c-142,14 -1417,4 -1673,7 -207,3 -208,-28 -213,56 34,27 1280,9 1488,7 153,-1 368,12 511,-7z"/>
   <path class="fil7" d="M5440 4877c-29,28 3,8 -40,20 -13,48 -20,86 -31,134 -16,77 -34,69 -48,129 30,36 45,28 59,74 11,38 -3,85 -3,133l46 -16 12 -128 138 8 7 -54c31,7 55,36 120,-59 -14,-5 -22,53 -35,-22 -7,-41 7,-63 22,-98l128 7c-2,3 -37,-42 83,16 0,68 -43,39 -31,126 11,-47 15,-56 46,-80l20 93c0,4 -1,16 0,14 2,-2 1,9 0,14l-8 163 36 9c14,-580 -71,-290 -302,-454 -110,-77 -122,-32 -219,-29z"/>
   <path class="fil6" d="M3244 5038c193,-5 1520,8 1579,-17 4,-70 17,-55 -50,-61 -229,20 -1008,5 -1346,8l-147 2 -36 68z"/>
   <path class="fil8" d="M3244 5148c41,48 200,22 266,22l699 -4c67,1 101,20 97,-49 -14,-12 -2,-8 -28,-16 -23,-7 -10,-4 -32,-5l-757 6c-196,0 -233,-28 -245,46z"/>
   <path class="fil8" d="M3308 6243l675 -7c30,-35 5,-22 27,-57 -106,-26 -623,-11 -760,-6l5 67 53 3z"/>
   <path class="fil9" d="M5573 5231c93,5 103,-15 172,-30 57,-12 37,3 93,4 53,1 47,-13 95,-17 1,-5 2,-16 0,-14 -1,2 0,-10 0,-14l-20 -93c-31,24 -35,33 -46,80 -12,-87 31,-58 31,-126 -120,-58 -85,-13 -83,-16l-128 -7c-15,35 -29,57 -22,98 13,75 21,17 35,22 -65,95 -89,66 -120,59l-7 54z"/>
   <path class="fil8" d="M2947 6037c-67,12 -247,4 -329,4 -214,2 -290,-30 -296,53 52,50 379,-10 477,26l205 -10c75,-10 26,22 54,-35 -14,-41 5,-32 -111,-38z"/>
   <path class="fil8" d="M3777 5625c-43,22 -315,12 -406,11 -75,0 -107,-22 -125,46l19 13c50,21 155,9 217,10 88,0 167,-5 254,1 39,-6 88,-4 136,-4 84,1 117,25 125,-50 -41,-42 -156,-10 -220,-27z"/>
   <path class="fil6" d="M3036 6341c-31,-44 6,-20 -42,-35 -109,2 -609,-13 -669,14l-3 47c53,25 292,10 370,10 132,0 305,22 344,-36z"/>
   <path class="fil8" d="M5427 6034c-82,-2 -52,-17 -62,48 21,23 -10,5 27,16 18,6 25,6 44,6 21,1 57,-2 80,-2l482 -4 7 -55c-75,-24 -467,-9 -578,-9z"/>
   <path class="fil10" d="M5974 5483c-19,149 -52,281 -155,352l24 60c110,43 167,-25 332,48l4 -61 -211 -8c-42,-4 8,5 -27,-7 -2,0 -8,-1 -9,-4 -1,-4 -10,-9 -6,-7l7 -11c14,-48 48,-46 12,-27 -26,-70 -56,31 -12,-80 141,33 157,112 184,62 -54,-13 -61,15 -62,-113 -1,-38 -14,-11 6,-26 -59,50 -13,67 -100,76 13,-56 26,-126 39,-178 21,-88 15,-11 39,-71 26,-64 2,-74 -5,-85 -10,54 -8,70 -60,80z"/>
   <path class="fil8" d="M2323 6487c34,40 83,24 158,24 49,0 107,0 156,0 118,-2 293,24 279,-38 -10,-43 0,-30 -66,-34l-402 4c-158,-2 -111,-11 -125,44z"/>
   <path class="fil6" d="M2315 5158c1,0 -30,11 59,18l471 -5 2 -60c-50,-15 -211,-5 -274,-5 -212,1 -244,-32 -258,52z"/>
   <path class="fil11" d="M5557 5847l-19 -2 -28 118c84,17 265,15 329,3l4 -71 -24 -60c-74,51 -150,56 -262,12z"/>
   <path class="fil8" d="M3252 5228l-6 67c52,18 252,7 326,10 35,-4 53,-2 90,-1 70,2 75,13 87,-44 -31,-45 -130,-25 -242,-26 -85,0 -177,14 -255,-6z"/>
   <path class="fil8" d="M5827 6215c78,-6 94,26 104,-49 -20,-27 10,-14 -41,-23l-358 2c-80,-2 -85,-18 -90,53 40,34 314,14 385,17z"/>
   <path class="fil6" d="M3585 5358c-46,20 -129,11 -190,11 -93,0 -145,-27 -150,55 53,26 195,12 262,13 39,-1 75,1 115,1 78,1 75,13 84,-47 -32,-42 -56,-17 -121,-33z"/>
   <path class="fil8" d="M3650 5841l33 3 10 -65c-78,-21 -250,-8 -353,-9 -82,-2 -87,-17 -92,53 44,34 316,11 402,18z"/>
   <path class="fil8" d="M2801 5853c56,-24 80,-3 136,-17l21 -50 -40 -13c-69,-3 -145,0 -218,0 -215,0 -179,-21 -185,55 64,47 204,-5 286,25z"/>
   <path class="fil12" d="M2317 5301c55,14 180,7 247,7 228,-2 194,28 206,-59 -63,-19 -262,-7 -352,-9l-99 12 -2 49z"/>
   <path class="fil13" d="M5440 4877c97,-3 109,-48 219,29 231,164 316,-126 302,454l74 32 -26 -54c-11,-20 -16,-23 -20,-40 -4,-20 -1,-95 -1,-117 -1,-58 0,-178 -30,-211 -29,-32 -151,-25 -225,-60 -69,-33 -126,-85 -226,-77 -63,44 -23,-17 -67,44z"/>
   <path class="fil6" d="M2317 5429c60,27 331,14 410,11l4 -59c-38,-15 -360,-13 -408,-2l-6 50z"/>
   <path class="fil6" d="M2802 6243l5 -60c-49,-17 -204,-9 -266,-8 -206,3 -216,-25 -219,49l480 19z"/>
   <path class="fil6" d="M2318 5027c34,28 322,16 385,10l5 -55c-46,-19 -149,-10 -208,-10 -212,-1 -179,-21 -182,55z"/>
   <path class="fil12" d="M2321 5954c38,45 365,21 386,15l5 -48c-57,-29 -151,-13 -214,-13 -173,1 -167,-20 -177,46z"/>
   <polygon class="fil8" points="2480,4802 2532,4779 2535,4677 2479,4668 2321,4673 2314,4785 "/>
   <path class="fil8" d="M3250 6483c20,22 -20,14 52,25 2,1 45,0 48,0 77,-2 230,10 275,-12l1 -42c-39,-29 -208,-16 -299,-16 -68,0 -63,-10 -77,45z"/>
   <path class="fil8" d="M3245 5575l368 -5 12 -64 -84 -5 -255 4c-21,3 -23,5 -37,9l-4 61z"/>
   <path class="fil14" d="M5677 6376c37,-46 104,-69 177,-58 -41,31 -120,53 -177,58zm-133 66l83 -24 104 133c13,-56 9,-37 -20,-68 -10,-40 -23,-10 -44,-67l18 -9c3,-1 7,-3 10,-4 3,-1 7,-3 9,-4l106 -32c49,-19 91,-28 123,-74 -87,-23 -219,5 -264,50 -55,56 -19,44 -109,63 -52,12 -77,8 -117,53l101 -17z"/>
   <path class="fil6" d="M2513 5669c6,44 2,19 15,40l305 0 19 -54c-63,-25 -125,-15 -192,-16 -42,0 -140,-17 -147,30z"/>
   <path class="fil15" d="M5194 5954c36,35 75,20 149,20 56,0 105,-4 168,4l27 -133 19 2c-9,-15 14,-11 -36,-24l-13 85c-63,0 -273,-22 -314,46z"/>
   <path class="fil6" d="M3381 6040c-50,-3 -87,-9 -131,8l1 49c59,22 208,7 286,10l11 -63 -167 -4z"/>
   <path class="fil15" d="M5843 5895l-4 71c72,11 113,4 177,4 28,1 58,4 83,4 51,0 50,1 76,-31 -165,-73 -222,-5 -332,-48z"/>
   <path class="fil6" d="M3318 6295l-62 11 -6 36 2 25c56,12 96,8 138,7 74,-1 98,25 113,-46 -48,-54 -72,-1 -185,-33z"/>
   <polygon class="fil6" points="2767,5572 2766,5507 2516,5507 2513,5573 "/>
   <path class="fil8" d="M3504 5922l-37 -16c-45,-2 -85,-2 -133,-2 -73,-1 -88,-15 -82,52l242 17 10 -51z"/>
   <path class="fil16" d="M4765 4659c-18,20 -25,17 -26,73 0,48 -21,66 73,68 22,-64 35,-131 -47,-141z"/>
   <path class="fil16" d="M4339 4802c47,-38 42,-90 8,-139 -86,6 -59,47 -58,129l50 10z"/>
   <path class="fil16" d="M4628 4683c0,7 -2,59 -1,67 7,37 1,14 27,46l52 -7c9,-53 12,-76 -9,-122 -44,-6 -45,-12 -69,16z"/>
   <path class="fil17" d="M3954 4788c42,11 7,19 60,0 11,-29 8,-46 0,-74 -16,-60 2,-36 -44,-43 -19,46 -27,67 -16,117z"/>
   <path class="fil18" d="M4901 4693c15,38 14,41 -1,72 -11,-14 -19,12 -19,-40 -1,-56 12,-26 20,-32zm28 -30c-50,5 -25,-7 -61,16 -16,32 -14,78 -1,109l58 6c17,-61 15,-72 4,-131z"/>
   <path class="fil19" d="M4436 4767c-18,-37 -20,-36 3,-75 11,15 17,-12 17,38 0,75 -8,26 -20,37zm-19 23c57,6 64,6 63,-61 0,-70 -6,-60 -63,-65 -22,49 -25,84 0,126z"/>
   <path class="fil20" d="M5709 5464c-5,-55 -1,-33 -26,-54 -43,20 -36,19 -36,65 1,72 -2,56 47,63 0,-1 21,-5 15,-74z"/>
   <path class="fil19" d="M4564 4695c0,1 8,20 6,33 -7,43 0,19 -22,39 -10,-28 -31,-66 16,-72zm10 96c4,-5 10,-11 16,-30l2 -93 -61 -2c-24,45 -21,83 -2,126l45 -1z"/>
   <path class="fil18" d="M3274 4677c2,3 6,7 7,9l2 39c-19,14 -25,10 -15,72 41,6 30,10 63,-9l-41 -37c84,-7 67,-90 -16,-74z"/>
   <path class="fil17" d="M4213 4694c27,27 25,47 -2,72 -28,-33 -26,-41 2,-72zm-22 -24c-23,36 -19,77 -10,121l53 1c26,-37 18,-85 8,-121l-51 -1z"/>
   <path class="fil17" d="M3759 4727c-25,-26 -14,-35 -29,-54 -22,50 -14,73 -10,121l72 6c3,-92 0,-38 -33,-73z"/>
   <path class="fil21" d="M3445 4798c13,-47 13,-75 2,-120l-57 -3c-6,37 -3,12 37,36 -7,5 -21,18 -29,22 28,30 13,14 22,31l-36 33 61 1z"/>
   <path class="fil17" d="M4122 4791c25,-29 18,-71 10,-120l-65 3 -4 36c42,76 -49,-41 19,19 52,45 11,11 40,62z"/>
   <path class="fil19" d="M3656 4696c1,-1 2,-7 2,-8l0 -19c-25,7 -43,-29 -42,41 0,48 23,32 44,39 -72,78 60,-56 -25,21 -17,15 -6,-1 -22,22l46 5c31,-36 50,-39 -18,-90l15 -11z"/>
   <path class="fil18" d="M3164 4671c12,51 17,73 -11,125l62 -2c15,-37 9,-15 -4,-50 -1,-3 -4,-6 -5,-9 -29,-78 22,-42 -42,-64z"/>
   <path class="fil22" d="M5677 6376c57,-5 136,-27 177,-58 -73,-11 -140,12 -177,58z"/>
   <path class="fil17" d="M3516 4731c4,-46 9,-21 -10,-52 -9,19 -20,41 -10,65 12,25 37,30 63,47l-1 -87c-29,0 9,-17 -42,27z"/>
   <path class="fil18" d="M3909 4670l-72 0c2,4 6,8 8,10l16 17c1,2 5,5 7,6 1,1 5,8 6,6 2,-2 4,3 6,5 -33,43 -25,30 -10,73l12 -18c2,-4 5,-7 7,-11l20 -88z"/>
   <path class="fil23" d="M5780 5276c3,2 -16,15 35,16 77,2 8,4 41,-13 -6,-5 24,-19 -36,-19 -68,-1 -19,3 -40,16z"/>
   <path class="fil23" d="M5538 5295c4,1 34,1 38,1 -6,-9 31,-54 -73,-25 14,20 -5,12 35,24z"/>
   <path class="fil24" d="M4436 4767c12,-11 20,38 20,-37 0,-50 -6,-23 -17,-38 -23,39 -21,38 -3,75z"/>
   <path class="fil25" d="M4211 4766c27,-25 29,-45 2,-72 -28,31 -30,39 -2,72z"/>
   <path class="fil24" d="M4564 4695c-47,6 -26,44 -16,72 22,-20 15,4 22,-39 2,-13 -6,-32 -6,-33z"/>
   <path class="fil26" d="M4900 4765c15,-31 16,-34 1,-72 -8,6 -21,-24 -20,32 0,52 8,26 19,40z"/>
   <path class="fil27" d="M5530 5380c57,20 23,24 49,-31 -53,1 -41,-20 -49,31z"/>
   <path class="fil27" d="M5787 5384c43,0 13,34 43,-34 -42,-1 -56,-22 -43,34z"/>
  </g>
 </g>
</svg>
